<svg id="svg" version="1.1" xmlns="http://www.w3.org/2000/svg" xmlns:xlink="http://www.w3.org/1999/xlink" width="400" height="400" viewBox="0, 0, 400,400"><g id="svgg"><path id="path0" d="M0.000 37.406 L 0.000 74.812 12.300 74.706 L 24.600 74.600 24.800 62.533 C 24.910 55.896,25.150 50.316,25.333 50.133 C 25.516 49.950,31.006 49.710,37.533 49.600 L 49.400 49.400 49.600 37.533 C 49.710 31.006,49.950 25.516,50.133 25.333 C 50.316 25.150,61.476 24.910,74.933 24.800 L 99.400 24.600 99.506 12.300 L 99.612 0.000 49.806 0.000 L 0.000 0.000 0.000 37.406 M300.494 12.300 L 300.600 24.600 325.067 24.800 C 338.524 24.910,349.684 25.150,349.867 25.333 C 350.050 25.516,350.290 31.006,350.400 37.533 L 350.600 49.400 362.400 49.600 C 368.890 49.710,374.425 49.946,374.700 50.124 C 375.081 50.370,375.200 53.226,375.200 62.144 C 375.200 70.707,375.329 73.969,375.680 74.320 C 376.032 74.672,379.342 74.800,388.080 74.800 L 400.000 74.800 400.000 37.400 L 400.000 0.000 350.194 0.000 L 300.388 0.000 300.494 12.300 M0.000 387.600 L 0.000 400.000 12.400 400.000 L 24.800 400.000 24.800 388.080 C 24.800 379.342,24.672 376.032,24.320 375.680 C 23.968 375.328,20.658 375.200,11.920 375.200 L 0.000 375.200 0.000 387.600 M375.680 375.680 C 375.328 376.032,375.200 379.342,375.200 388.080 L 375.200 400.000 387.600 400.000 L 400.000 400.000 400.000 387.600 L 400.000 375.200 388.080 375.200 C 379.342 375.200,376.032 375.328,375.680 375.680 " stroke="none" fill="#fcfcfb" fill-rule="evenodd"></path><path id="path1" d="M25.600 187.226 C 25.600 194.476,25.444 199.144,25.186 199.626 C 24.790 200.366,24.222 200.400,12.386 200.400 L 0.000 200.400 0.000 225.200 L 0.000 250.000 12.151 250.000 C 21.792 250.000,24.394 249.890,24.745 249.466 C 25.041 249.110,25.223 245.032,25.294 237.166 L 25.400 225.400 26.800 225.200 C 27.570 225.090,106.230 225.090,201.600 225.200 L 375.000 225.400 375.106 237.166 C 375.177 245.032,375.359 249.110,375.655 249.466 C 376.006 249.889,378.575 250.000,388.049 250.000 L 400.000 250.000 400.000 225.200 L 400.000 200.400 387.600 200.400 C 380.780 200.400,375.162 200.355,375.115 200.300 C 375.068 200.245,374.933 194.710,374.815 188.000 L 374.600 175.800 200.100 175.700 L 25.600 175.599 25.600 187.226 " stroke="none" fill="#48aa46" fill-rule="evenodd"></path><path id="path2" d="M12.700 150.294 L 0.000 150.411 -0.000 174.782 L -0.000 199.153 11.100 199.276 C 17.205 199.344,22.695 199.335,23.300 199.255 L 24.400 199.109 24.400 187.364 L 24.400 175.618 25.352 174.994 C 26.443 174.279,373.497 174.158,374.900 174.872 C 375.543 175.199,375.600 176.199,375.600 187.170 L 375.600 199.112 376.900 199.256 C 377.615 199.335,383.105 199.344,389.100 199.276 L 400.000 199.152 400.000 174.641 L 400.000 150.129 212.700 150.153 C 109.685 150.167,19.685 150.230,12.700 150.294 " stroke="none" fill="#d92a15" fill-rule="evenodd"></path><path id="path3" d="M101.987 12.300 C 101.970 29.157,105.312 27.259,75.796 27.177 C 56.785 27.125,52.634 27.209,52.257 27.657 C 51.928 28.048,51.856 31.166,52.000 38.800 L 52.200 49.400 50.848 50.717 L 49.496 52.034 38.768 51.981 C 26.536 51.920,26.113 52.006,26.808 54.429 C 27.024 55.180,27.200 59.953,27.200 65.036 C 27.200 78.025,28.237 77.200,11.911 77.200 L 0.000 77.200 0.000 113.700 L 0.000 150.200 187.500 150.125 C 290.625 150.084,380.625 150.039,387.500 150.025 L 400.000 150.000 400.000 148.606 L 400.000 147.212 387.900 147.100 L 375.800 146.988 387.900 146.894 L 400.000 146.800 400.000 112.000 L 400.000 77.200 388.162 77.200 C 371.813 77.200,373.101 78.384,373.275 63.513 C 373.393 53.449,373.359 52.841,372.648 52.397 C 372.115 52.065,368.777 51.943,361.211 51.981 L 350.528 52.034 349.264 50.741 L 348.000 49.448 348.000 39.750 C 348.000 34.416,348.163 29.623,348.362 29.099 C 349.108 27.137,348.918 27.122,324.246 27.177 C 294.789 27.242,298.000 29.060,298.000 12.311 L 298.000 0.000 200.000 0.000 L 102.000 0.000 101.987 12.300 M174.732 147.100 C 147.525 147.157,102.885 147.157,75.532 147.100 C 48.179 147.043,70.440 146.997,125.000 146.997 C 179.560 146.997,201.939 147.043,174.732 147.100 M324.931 147.100 C 311.473 147.158,289.333 147.158,275.731 147.100 C 262.129 147.042,273.140 146.994,300.200 146.994 C 327.260 146.994,338.389 147.042,324.931 147.100 M0.000 349.600 L 0.000 373.200 12.353 373.200 L 24.705 373.200 25.953 374.476 L 27.200 375.752 27.200 387.876 L 27.200 400.000 200.200 400.000 L 373.200 400.000 373.200 387.769 L 373.200 375.538 374.369 374.369 L 375.538 373.200 387.769 373.200 L 400.000 373.200 400.000 349.600 L 400.000 326.000 200.000 326.000 L 0.000 326.000 0.000 349.600 " stroke="none" fill="#ecac1b" fill-rule="evenodd"></path><path id="path4" d="M99.506 12.300 L 99.400 24.600 74.933 24.800 C 61.476 24.910,50.316 25.150,50.133 25.333 C 49.950 25.516,49.710 31.006,49.600 37.533 L 49.400 49.400 37.533 49.600 C 31.006 49.710,25.516 49.950,25.333 50.133 C 25.150 50.316,24.910 55.896,24.800 62.533 L 24.600 74.600 12.200 74.812 L -0.200 75.023 12.400 75.012 L 25.000 75.000 25.215 62.800 C 25.333 56.090,25.468 50.555,25.515 50.500 C 25.562 50.445,30.897 50.400,37.371 50.400 C 47.539 50.400,49.228 50.314,49.771 49.771 C 50.314 49.229,50.400 47.543,50.400 37.414 C 50.400 27.088,50.476 25.657,51.033 25.443 C 51.381 25.309,62.415 25.200,75.553 25.200 C 93.598 25.200,99.557 25.083,99.920 24.720 C 100.534 24.106,100.617 -0.000,100.006 0.000 C 99.758 0.000,99.572 4.558,99.506 12.300 M299.678 12.100 C 299.745 18.755,299.946 24.425,300.124 24.700 C 300.377 25.091,305.757 25.200,324.800 25.200 C 341.681 25.200,349.234 25.331,349.418 25.628 C 349.563 25.864,349.663 31.039,349.639 37.128 C 349.606 45.434,349.723 48.450,350.109 49.200 L 350.623 50.200 362.612 50.400 L 374.600 50.600 374.815 62.800 C 374.933 69.510,375.068 75.045,375.115 75.100 C 375.162 75.155,380.825 75.158,387.700 75.106 L 400.200 75.012 388.234 74.900 C 380.228 74.825,376.091 74.641,375.734 74.345 C 375.311 73.994,375.200 71.463,375.200 62.175 C 375.200 53.232,375.081 50.370,374.700 50.124 C 374.425 49.946,368.890 49.710,362.400 49.600 L 350.600 49.400 350.400 37.533 C 350.290 31.006,350.050 25.516,349.867 25.333 C 349.684 25.150,338.524 24.910,325.067 24.800 L 300.600 24.600 300.494 12.300 C 300.424 4.122,300.249 0.000,299.973 0.000 C 299.691 0.000,299.596 3.915,299.678 12.100 M0.000 312.600 L 0.000 324.800 200.000 324.800 L 400.000 324.800 400.000 312.600 L 400.000 300.400 200.000 300.400 L 0.000 300.400 0.000 312.600 M11.856 375.100 C 21.244 375.187,24.009 375.328,24.350 375.739 C 24.640 376.089,24.826 380.309,24.900 388.234 L 25.012 400.200 25.106 387.743 C 25.189 376.697,25.128 375.258,24.567 375.043 C 24.219 374.909,18.504 374.842,11.867 374.894 L -0.200 374.988 11.856 375.100 M375.429 375.429 C 374.881 375.977,374.812 377.605,374.894 388.129 L 374.988 400.200 375.100 388.234 C 375.174 380.309,375.360 376.089,375.650 375.739 C 375.991 375.328,378.756 375.187,388.144 375.100 L 400.200 374.988 388.129 374.894 C 377.605 374.812,375.977 374.881,375.429 375.429 " stroke="none" fill="#d4ea6a" fill-rule="evenodd"></path><path id="path5" d="M25.300 175.011 C 24.401 175.644,24.400 175.664,24.400 187.423 L 24.400 199.200 23.300 199.228 C 22.695 199.244,17.205 199.232,11.100 199.202 C 1.269 199.153,0.000 199.219,0.000 199.774 C 0.000 200.851,24.607 200.707,25.186 199.626 C 25.444 199.144,25.600 194.476,25.600 187.226 L 25.600 175.599 200.100 175.700 L 374.600 175.800 374.815 188.000 C 374.933 194.710,375.068 200.245,375.115 200.300 C 375.571 200.835,400.000 200.318,400.000 199.773 C 400.000 199.218,398.752 199.153,389.100 199.202 C 383.105 199.233,377.615 199.245,376.900 199.229 L 375.600 199.200 375.600 187.214 C 375.600 176.201,375.543 175.199,374.900 174.872 C 373.478 174.149,26.327 174.286,25.300 175.011 M26.800 225.200 L 25.400 225.400 25.294 237.166 C 25.223 245.032,25.041 249.110,24.745 249.466 C 24.394 249.890,21.792 250.000,12.151 250.000 L 0.000 250.000 0.000 275.000 L 0.000 300.000 200.000 300.000 L 400.000 300.000 400.000 275.000 L 400.000 250.000 388.049 250.000 C 378.575 250.000,376.006 249.889,375.655 249.466 C 375.359 249.110,375.177 245.032,375.106 237.166 L 375.000 225.400 201.600 225.200 C 106.230 225.090,27.570 225.090,26.800 225.200 " stroke="none" fill="#946c13" fill-rule="evenodd"></path><path id="path6" d="M101.200 12.226 C 101.200 19.889,101.045 24.741,100.786 25.226 C 100.384 25.978,99.691 26.000,76.419 26.000 C 63.244 26.000,52.181 26.109,51.833 26.243 C 51.276 26.457,51.200 27.888,51.200 38.214 C 51.200 48.343,51.114 50.029,50.571 50.571 C 50.030 51.113,48.379 51.200,38.604 51.200 C 32.368 51.200,26.981 51.309,26.633 51.443 C 26.076 51.657,26.000 53.084,26.000 63.363 C 26.000 71.912,25.871 75.169,25.520 75.520 C 25.167 75.873,21.724 76.000,12.520 76.000 C 1.658 76.000,0.000 76.079,0.000 76.600 C 0.000 77.120,1.590 77.200,11.911 77.200 C 28.237 77.200,27.200 78.025,27.200 65.036 C 27.200 59.953,27.024 55.180,26.808 54.429 C 26.113 52.006,26.536 51.920,38.768 51.981 L 49.496 52.034 50.848 50.717 L 52.200 49.400 52.000 38.800 C 51.856 31.166,51.928 28.048,52.257 27.657 C 52.634 27.209,56.785 27.125,75.796 27.177 C 100.664 27.246,99.882 27.305,101.487 25.230 C 102.112 24.422,102.221 0.000,101.600 0.000 C 101.342 0.000,101.200 4.342,101.200 12.226 M298.094 12.467 C 298.175 22.008,298.317 24.973,298.700 25.100 C 299.093 25.231,299.200 22.562,299.200 12.633 C 299.200 1.618,299.122 0.000,298.594 0.000 C 298.064 0.000,298.002 1.553,298.094 12.467 M300.600 26.630 C 301.294 27.155,304.422 27.228,324.246 27.180 C 348.919 27.122,349.108 27.137,348.362 29.099 C 347.695 30.854,347.906 49.424,348.600 50.000 C 349.400 50.664,349.520 27.280,348.720 26.480 C 348.357 26.117,342.339 26.003,324.020 26.013 C 302.320 26.024,299.883 26.088,300.600 26.630 M349.959 51.497 C 350.436 51.867,353.326 51.986,361.248 51.961 C 368.755 51.938,372.117 52.066,372.648 52.397 C 373.359 52.841,373.393 53.449,373.275 63.513 C 373.141 74.959,373.199 75.354,375.193 76.532 C 376.816 77.491,400.000 77.554,400.000 76.600 C 400.000 76.079,398.335 76.000,387.414 76.000 C 375.380 76.000,374.810 75.966,374.414 75.226 C 374.156 74.745,374.000 70.134,374.000 63.014 C 374.000 54.224,373.884 51.534,373.500 51.398 C 372.144 50.917,349.336 51.013,349.959 51.497 M75.532 147.100 C 102.885 147.157,147.525 147.157,174.732 147.100 C 201.939 147.043,179.560 146.997,125.000 146.997 C 70.440 146.997,48.179 147.043,75.532 147.100 M275.731 147.100 C 289.333 147.158,311.473 147.158,324.931 147.100 C 338.389 147.042,327.260 146.994,300.200 146.994 C 273.140 146.994,262.129 147.042,275.731 147.100 M381.900 147.099 C 385.255 147.166,390.745 147.166,394.100 147.099 C 397.455 147.032,394.710 146.978,388.000 146.978 C 381.290 146.978,378.545 147.032,381.900 147.099 M0.000 373.600 C 0.000 373.858,4.342 374.000,12.226 374.000 C 19.889 374.000,24.741 374.155,25.226 374.414 C 25.966 374.810,26.000 375.380,26.000 387.414 C 26.000 398.335,26.079 400.000,26.600 400.000 C 27.120 400.000,27.200 398.386,27.200 387.876 L 27.200 375.752 25.953 374.476 L 24.705 373.200 12.353 373.200 C 4.384 373.200,0.000 373.342,0.000 373.600 M374.300 374.394 L 373.200 375.549 373.200 387.774 C 373.200 395.658,373.342 400.000,373.600 400.000 C 373.858 400.000,374.000 395.610,374.000 387.629 C 374.000 376.915,374.084 375.173,374.629 374.629 C 375.173 374.084,376.915 374.000,387.629 374.000 C 395.610 374.000,400.000 373.858,400.000 373.600 C 400.000 373.342,395.646 373.207,387.700 373.219 L 375.400 373.239 374.300 374.394 " stroke="none" fill="#ecb41e" fill-rule="evenodd"></path><path id="path7" d="M100.400 12.120 C 100.400 21.013,100.272 24.368,99.920 24.720 C 99.557 25.083,93.598 25.200,75.553 25.200 C 62.415 25.200,51.381 25.309,51.033 25.443 C 50.476 25.657,50.400 27.088,50.400 37.414 C 50.400 47.543,50.314 49.229,49.771 49.771 C 49.228 50.314,47.539 50.400,37.371 50.400 C 30.897 50.400,25.562 50.445,25.515 50.500 C 25.468 50.555,25.333 56.090,25.215 62.800 L 25.000 75.000 12.500 75.106 C 4.625 75.172,0.000 75.357,0.000 75.606 C -0.000 76.218,24.906 76.134,25.520 75.520 C 25.871 75.169,26.000 71.912,26.000 63.363 C 26.000 53.084,26.076 51.657,26.633 51.443 C 26.981 51.309,32.368 51.200,38.604 51.200 C 48.379 51.200,50.030 51.113,50.571 50.571 C 51.114 50.029,51.200 48.343,51.200 38.214 C 51.200 27.888,51.276 26.457,51.833 26.243 C 52.181 26.109,63.244 26.000,76.419 26.000 C 99.691 26.000,100.384 25.978,100.786 25.226 C 101.342 24.187,101.356 0.000,100.800 0.000 C 100.542 0.000,100.400 4.307,100.400 12.120 M299.381 12.800 L 299.400 25.800 323.763 25.903 C 340.947 25.976,348.284 26.138,348.663 26.452 C 349.090 26.807,349.200 29.335,349.200 38.849 C 349.200 45.422,349.245 50.836,349.300 50.879 C 349.355 50.923,354.890 51.058,361.600 51.179 L 373.800 51.400 374.000 63.200 C 374.110 69.690,374.346 75.225,374.524 75.500 C 374.937 76.138,400.000 76.237,400.000 75.600 C 400.000 75.342,395.600 75.200,387.600 75.200 C 380.780 75.200,375.162 75.155,375.115 75.100 C 375.068 75.045,374.933 69.510,374.815 62.800 L 374.600 50.600 362.612 50.400 L 350.623 50.200 350.109 49.200 C 349.723 48.450,349.606 45.434,349.639 37.128 C 349.663 31.039,349.563 25.864,349.418 25.628 C 349.234 25.331,341.681 25.200,324.800 25.200 C 305.757 25.200,300.377 25.091,300.124 24.700 C 299.946 24.425,299.701 18.710,299.581 12.000 L 299.362 -0.200 299.381 12.800 M99.900 300.300 C 154.955 300.356,245.045 300.356,300.100 300.300 C 355.155 300.244,310.110 300.198,200.000 300.198 C 89.890 300.198,44.845 300.244,99.900 300.300 M0.000 325.400 C 0.000 325.933,22.489 326.000,200.000 326.000 C 377.511 326.000,400.000 325.933,400.000 325.400 C 400.000 324.867,377.511 324.800,200.000 324.800 C 22.489 324.800,0.000 324.867,0.000 325.400 M0.000 374.400 C 0.000 374.658,4.256 374.800,11.967 374.800 C 18.549 374.800,24.219 374.909,24.567 375.043 C 25.125 375.257,25.200 376.744,25.200 387.643 C 25.200 395.614,25.342 400.000,25.600 400.000 C 26.474 400.000,26.107 374.885,25.226 374.414 C 24.187 373.858,0.000 373.844,0.000 374.400 M374.629 374.629 C 373.877 375.381,373.655 400.000,374.400 400.000 C 374.658 400.000,374.800 395.743,374.800 388.029 C 374.800 377.679,374.885 375.972,375.429 375.429 C 375.972 374.885,377.679 374.800,388.029 374.800 C 395.743 374.800,400.000 374.658,400.000 374.400 C 400.000 373.655,375.381 373.877,374.629 374.629 " stroke="none" fill="#ecb42c" fill-rule="evenodd"></path><path id="path8" d="" stroke="none" fill="#98100c8" fill-rule="evenodd"></path></g></svg>